#N canvas 63 100 450 300 12;
#X obj 68 21 inlet;
#X obj 68 44 bng 15 250 50 0 empty empty empty 17 7 0 10 #fcfcfc #000000 #000000;
#X obj 68 170 outlet~;
#X obj 149 14 tgl 19 0 empty init-instruments empty 0 -10 0 12 #fcfcfc #000000 #000000 0 1;
#N canvas 0 22 450 278 (subpatch) 0;
#X array kick 81530 float 0;
#X coords 0 1 81529 -1 200 140 1 0 0;
#X restore 237 76 graph;
#X obj 149 62 soundfiler;
#X obj 68 141 *~;
#X floatatom 103 120 5 0 1 0 - \$0-kickvol-s - 0;
#X msg 149 38 read -resize Samples/808kick-d1.wav kick;
#X obj 68 94 tabplay~ kick;
#X connect 0 0 1 0;
#X connect 1 0 9 0;
#X connect 3 0 8 0;
#X connect 6 0 2 0;
#X connect 7 0 6 1;
#X connect 8 0 5 0;
#X connect 9 0 6 0;
